<svg width="224" height="80" viewBox="0 0 224 80" fill="none" xmlns="http://www.w3.org/2000/svg">
<path d="M22.2372 52.8209L17.0746 58.1711C15.4673 59.8365 12.8325 59.9057 11.1895 58.3234C10.3562 57.5203 9.93848 56.4503 9.93848 55.3704C9.93848 54.3201 10.3344 53.2639 11.1262 52.4431L19.3927 43.948C19.3927 43.948 22.5361 48.2084 22.2372 52.8209Z" fill="#51934A"/>
<path d="M26.2224 48.691L24.4309 50.5482L22.2357 52.8228C22.5346 48.2104 19.3911 43.948 19.3911 43.948L6.641 27.2506C5.23752 25.4092 5.58988 22.7805 7.43083 21.3762C8.19097 20.7967 9.08373 20.5178 9.97253 20.5178C11.2374 20.5178 12.4845 21.0855 13.31 22.1674L25.3 37.8739L25.3079 37.8818L26.8004 39.836C26.8539 39.9052 26.9053 39.9784 26.9568 40.0496C28.8393 42.7059 28.485 46.3472 26.2224 48.691Z" fill="#32B6D1"/>
<path d="M31.0698 24.2145C31.0698 24.2145 26.804 27.3554 22.1877 27.0567L16.8331 21.8984C15.1664 20.2923 15.0971 17.6598 16.6807 16.0181C17.4844 15.1854 18.5553 14.7681 19.6361 14.7681C20.6873 14.7681 21.7443 15.1636 22.5658 15.9548L31.0698 24.2145Z" fill="#DDB725"/>
<path d="M54.5195 14.8036C54.5195 16.0675 53.9514 17.3136 52.8686 18.1384L37.1492 30.1185L37.1413 30.1264L35.1855 31.6158C35.1163 31.6692 35.043 31.7226 34.9718 31.772C32.3113 33.651 28.667 33.297 26.3212 31.0362L24.4625 29.2462L22.186 27.0527C26.8023 27.3514 31.0681 24.2105 31.0681 24.2105L47.7792 11.4709C49.6222 10.0685 52.253 10.4206 53.6584 12.26C54.2404 13.0235 54.5195 13.9155 54.5195 14.8036Z" fill="#2DB8D4"/>
<path d="M53.6069 63.9881C52.8032 64.8208 51.7323 65.2381 50.6515 65.2381C49.6003 65.2381 48.5433 64.8426 47.7218 64.0514L39.2197 55.7917C39.2197 55.7917 43.4856 52.6508 48.1018 52.9495L53.4564 58.1078C55.1232 59.7139 55.1905 62.3465 53.6069 63.9881Z" fill="#D7AE26"/>
<path d="M48.1001 52.9494C43.4838 52.6507 39.2179 55.7916 39.2179 55.7916L22.5068 68.5293C20.6639 69.9316 18.0331 69.5795 16.6277 67.7401C16.0477 66.9806 15.7686 66.0885 15.7686 65.2005C15.7686 63.9366 16.3367 62.6905 17.4195 61.8657L33.1388 49.8856L33.1468 49.8777L35.1025 48.3883C35.1718 48.3349 35.245 48.2815 35.3163 48.2321C37.9768 46.3531 41.6211 46.7071 43.9668 48.9678L45.8256 50.7578L48.1001 52.9494Z" fill="#2AB1CC"/>
<path d="M60.3725 24.5665C60.3725 25.6168 59.9766 26.673 59.1848 27.4938L50.9183 35.9889C50.9183 35.9889 47.7748 31.7265 48.0738 27.1141L53.2363 21.7638C54.8437 20.0985 57.4785 20.0292 59.1215 21.6115C59.9548 22.4146 60.3725 23.4866 60.3725 24.5665Z" fill="#55974D"/>
<path d="M62.8769 58.5608C62.1168 59.1403 61.224 59.4192 60.3352 59.4192C59.0703 59.4192 57.8232 58.8515 56.9978 57.7696L45.0078 42.0631L44.9999 42.0552L43.5093 40.101C43.4559 40.0318 43.4044 39.9586 43.3529 39.8874C41.4724 37.2291 41.8267 33.5878 44.0893 31.244L45.8808 29.3868L48.0761 27.1122C47.7772 31.7246 50.9206 35.987 50.9206 35.987L63.6707 52.6844C65.0722 54.5278 64.7179 57.1564 62.8769 58.5608Z" fill="#25B0CC"/>
<path d="M94.7692 53.2949C95.088 53.448 95.6109 53.5245 96.3377 53.5245H98.8052C99.4683 53.5245 99.7999 53.3332 99.7999 52.9506C99.7999 52.7849 99.6405 52.5235 99.3217 52.1664C99.1941 52.0134 99.124 51.854 99.1113 51.6882C99.0985 51.5989 99.0921 51.3567 99.0921 50.9613V31.757C99.0921 31.5529 99.1113 31.4063 99.1495 31.317C99.2005 31.215 99.3472 31.011 99.5895 30.7049C99.717 30.5391 99.7807 30.3797 99.7807 30.2267C99.7807 30.1757 99.7744 30.112 99.7616 30.0354C100.425 30.571 100.756 30.909 100.756 31.0492C100.756 31.1895 100.641 31.3871 100.412 31.6422C100.208 31.8972 100.093 32.0949 100.068 32.2352C100.055 32.3244 100.042 32.6432 100.029 33.1915V50.1771C100.029 50.9932 100.049 51.5416 100.087 51.8221C100.151 52.0771 100.323 52.4916 100.603 53.0654C100.756 53.3715 100.833 53.6074 100.833 53.7731C100.833 54.2577 100.476 54.5 99.7616 54.5H96.8924C96.3696 54.5 95.9679 54.4171 95.6874 54.2513C95.4068 54.0473 95.1008 53.7285 94.7692 53.2949ZM97.6958 31.757V48.9147C97.6958 49.82 97.7085 50.3811 97.734 50.5979C97.7851 50.7764 97.9572 51.0124 98.2505 51.3056C98.3908 51.4332 98.4609 51.5862 98.4609 51.7647C98.4609 52.109 98.2059 52.2812 97.6958 52.2812H94.138C93.6407 52.2812 93.392 52.109 93.392 51.7647C93.392 51.5989 93.5642 51.3311 93.9085 50.9613C94.036 50.8211 94.1125 50.5724 94.138 50.2154C94.138 50.1006 94.138 49.667 94.138 48.9147V37.151C94.138 36.0161 93.985 35.4486 93.6789 35.4486C93.2581 35.4486 92.7799 36.048 92.2443 37.2467C91.441 39.0574 90.9819 40.7343 90.8671 42.2773C90.8416 42.8001 90.7205 43.1253 90.5037 43.2528C90.3252 43.3548 89.949 43.4058 89.3752 43.4058C88.5973 43.4058 88.1 43.3293 87.8832 43.1763C87.7429 43.0743 87.6026 42.5004 87.4624 41.4548C87.1818 39.491 86.5761 37.7312 85.6452 36.1755C85.3392 35.6782 85.0523 35.4295 84.7845 35.4295C84.5039 35.4295 84.3637 35.8567 84.3637 36.7111V48.9147C84.3637 49.8328 84.3828 50.3939 84.421 50.5979C84.4593 50.7764 84.6187 51.0124 84.8992 51.3056C85.0268 51.4459 85.0905 51.6053 85.0905 51.7838C85.0905 52.1154 84.8482 52.2812 84.3637 52.2812H80.7294C80.232 52.2812 79.9834 52.109 79.9834 51.7647C79.9834 51.5989 80.1555 51.3311 80.4998 50.9613C80.6273 50.8211 80.7039 50.5724 80.7294 50.2154C80.7294 50.1006 80.7294 49.667 80.7294 48.9147V31.757C80.7294 30.8388 80.7102 30.2777 80.672 30.0737C80.6337 29.8952 80.4743 29.6593 80.1938 29.366C80.0663 29.2257 80.0025 29.0663 80.0025 28.8878C80.0025 28.5562 80.2448 28.3904 80.7294 28.3904H83.1969C83.5922 28.3904 83.9046 28.4287 84.1341 28.5052C84.657 28.6965 85.3009 29.3277 86.066 30.3989C87.0862 31.7888 87.8768 33.1023 88.4379 34.3392C88.8842 35.2701 89.1903 35.7356 89.356 35.7356C89.5091 35.7356 89.6685 35.5634 89.8342 35.2191C90.7779 33.115 91.9319 31.2214 93.2964 29.5381C93.832 28.9133 94.3102 28.5498 94.731 28.4478C94.9222 28.4096 95.2793 28.3904 95.8021 28.3904H97.6958C98.2186 28.3904 98.48 28.569 98.48 28.926C98.48 29.0791 98.2951 29.3405 97.9253 29.7103C97.7978 29.8378 97.7277 30.0928 97.7149 30.4754C97.7022 30.5902 97.6958 31.0173 97.6958 31.757ZM87.1372 29.8824C88.2211 30.5965 89.1903 31.6294 90.0446 32.9811L89.7769 33.5932C89.7258 33.708 89.6748 33.7654 89.6238 33.7654C89.5728 33.7654 89.4772 33.6251 89.3369 33.3446C88.6483 32.0566 87.9151 30.9026 87.1372 29.8824ZM93.3155 41.4357C93.0732 42.2645 92.8756 43.3229 92.7225 44.6109C92.6715 45.07 92.5185 45.3441 92.2635 45.4334C92.0594 45.4971 91.7598 45.529 91.3645 45.529C90.3698 45.529 89.6621 45.1847 89.2413 44.4961C89.6238 44.5854 90.0255 44.63 90.4463 44.63C91.1349 44.63 91.5749 44.5216 91.7661 44.3048C91.8809 44.1773 91.9511 43.986 91.9766 43.731L92.1296 42.1434C92.2954 40.6004 92.5759 39.4846 92.9712 38.796C93.0477 38.6812 93.1242 38.6239 93.2007 38.6239C93.2773 38.6239 93.3155 38.7195 93.3155 38.9108V41.4357ZM81.4945 53.2949C81.8133 53.448 82.3234 53.5245 83.0247 53.5245H85.3966C86.0469 53.5245 86.3721 53.3332 86.3721 52.9506C86.3721 52.7849 86.2191 52.5235 85.913 52.1664C85.7855 52.0134 85.7154 51.854 85.7026 51.6882C85.6899 51.5989 85.6835 51.3503 85.6835 50.9422V38.796C85.6835 38.6685 85.7217 38.6047 85.7983 38.6047C85.8748 38.6047 85.9832 38.7896 86.1234 39.1594C86.4677 40.0521 86.6399 40.7152 86.6399 41.1487L86.6016 41.8182V50.158C86.6016 50.9741 86.6208 51.5288 86.659 51.8221C86.71 52.0899 86.8758 52.5043 87.1563 53.0654C87.2966 53.3715 87.3667 53.6137 87.3667 53.7923C87.3667 54.2641 86.9969 54.5 86.2573 54.5H83.5603C83.0502 54.5 82.6613 54.4171 82.3935 54.2513C82.1257 54.0601 81.826 53.7413 81.4945 53.2949ZM116.881 49.565C117.404 50.0368 117.665 50.4194 117.665 50.7127C117.665 50.853 117.627 51.0315 117.551 51.2483L116.843 53.2567C116.639 53.805 116.441 54.1493 116.25 54.2896C116.071 54.4299 115.714 54.5 115.179 54.5H106.074C105.423 54.5 104.971 54.4171 104.716 54.2513C104.295 53.9708 103.957 53.6392 103.702 53.2567C103.931 53.3842 104.129 53.4607 104.295 53.4862C104.499 53.5117 104.971 53.5245 105.71 53.5245H114.758C115.153 53.5245 115.453 53.448 115.657 53.2949C115.835 53.1674 115.988 52.9251 116.116 52.5681L116.824 50.5788C116.887 50.413 116.919 50.1962 116.919 49.9284C116.919 49.8137 116.907 49.6925 116.881 49.565ZM112.883 36.5963C113.011 36.7111 113.094 36.794 113.132 36.845C113.515 37.2148 113.738 37.4889 113.801 37.6675C113.865 37.846 113.897 38.1202 113.897 38.49V40.7853C113.897 41.4229 113.808 41.8501 113.629 42.0669C113.464 42.2582 113.279 42.3538 113.075 42.3538L110.837 41.3974H109.861C109.402 41.4102 109.141 41.493 109.077 41.6461C109.026 41.7481 109 41.9776 109 42.3347V48.1495C108.873 48.1623 108.771 48.1687 108.694 48.1687C108.465 48.1687 108.305 48.1113 108.216 47.9965C108.127 47.8818 108.082 47.6267 108.082 47.2314V41.5313C108.095 41.0595 108.203 40.7598 108.407 40.6323C108.611 40.492 108.917 40.4219 109.326 40.4219H110.473C110.767 40.4219 110.983 40.4346 111.124 40.4601C111.264 40.4856 111.468 40.6195 111.736 40.8618C111.965 41.0786 112.182 41.187 112.386 41.187C112.756 41.187 112.941 40.8299 112.941 40.1158V37.6866C112.941 37.1638 112.922 36.8003 112.883 36.5963ZM116.345 29.5955C116.919 29.8633 117.206 30.1948 117.206 30.5902C117.206 30.7177 117.174 30.8898 117.111 31.1066L116.345 33.8993C116.205 34.4094 115.88 34.6644 115.37 34.6644C115.14 34.6644 114.879 34.556 114.586 34.3392C114.216 34.0842 113.891 33.9439 113.61 33.9184C113.483 33.9057 113.26 33.8993 112.941 33.8993H110.148C109.753 33.8993 109.498 33.9184 109.383 33.9567C109.128 34.0459 109 34.4221 109 35.0852C108.873 35.098 108.771 35.1043 108.694 35.1043C108.299 35.1043 108.101 34.811 108.101 34.2244C108.101 33.6889 108.197 33.3446 108.388 33.1915C108.554 33.0513 108.924 32.9811 109.498 32.9811H112.941C113.272 32.9811 113.508 32.9875 113.648 33.0003C113.789 33.0258 113.999 33.1533 114.28 33.3828C114.509 33.5614 114.707 33.6506 114.873 33.6506C115.191 33.6506 115.459 33.2936 115.676 32.5795L116.307 30.5328C116.396 30.2522 116.441 30.0354 116.441 29.8824C116.441 29.8187 116.409 29.723 116.345 29.5955ZM115.408 29.2321L114.586 31.7378C114.433 32.2224 114.197 32.4647 113.878 32.4647C113.674 32.4647 113.457 32.369 113.228 32.1778C112.947 31.9355 112.718 31.7952 112.539 31.757C112.437 31.7442 112.271 31.7378 112.042 31.7378H108.503C107.827 31.7378 107.394 31.8207 107.202 31.9865C107.049 32.114 106.935 32.3117 106.858 32.5795C106.82 32.7452 106.801 33.2681 106.801 34.1479C106.801 34.9896 106.947 35.4933 107.241 35.659C107.47 35.7866 108.114 35.8503 109.173 35.8503C109.734 35.8503 110.186 35.71 110.531 35.4295C110.798 35.2 110.99 35.0852 111.104 35.0852C111.5 35.0852 111.697 35.4678 111.697 36.2329V39.0638C111.697 39.6249 111.519 39.9054 111.162 39.9054C111.034 39.9054 110.811 39.7907 110.492 39.5611C110.237 39.3698 109.982 39.2678 109.727 39.2551C109.523 39.2296 108.937 39.2168 107.967 39.2168C107.483 39.2168 107.145 39.389 106.954 39.7333C106.839 39.9501 106.782 40.3135 106.782 40.8236V47.5375C106.769 48.1113 106.941 48.513 107.298 48.7425C107.489 48.8573 107.872 48.9147 108.446 48.9147H112.864C113.489 48.9147 113.884 48.8955 114.05 48.8573C114.216 48.819 114.547 48.6596 115.045 48.3791C115.16 48.3153 115.293 48.2834 115.446 48.2834C115.765 48.2834 115.925 48.4365 115.925 48.7425C115.925 48.8445 115.886 49.0294 115.81 49.2972L115.16 51.4395C115.058 51.7711 114.924 52.0006 114.758 52.1281C114.618 52.2302 114.356 52.2812 113.974 52.2812H103.147C102.65 52.2812 102.401 52.1026 102.401 51.7456C102.401 51.5926 102.573 51.3311 102.918 50.9613C103.045 50.8211 103.122 50.5724 103.147 50.2154C103.147 50.1006 103.147 49.667 103.147 48.9147V31.7378C103.147 30.8197 103.128 30.265 103.09 30.0737C103.052 29.8824 102.892 29.6465 102.612 29.366C102.484 29.2257 102.42 29.0663 102.42 28.8878C102.42 28.5562 102.663 28.3904 103.147 28.3904H114.586C114.956 28.3904 115.191 28.416 115.293 28.467C115.408 28.5307 115.466 28.6519 115.466 28.8304C115.466 28.9707 115.446 29.1046 115.408 29.2321ZM132.394 30.3032C135.123 32.369 136.487 35.5634 136.487 39.8863C136.487 43.4313 135.779 46.5683 134.364 49.2972C132.91 52.0644 131.017 53.6966 128.683 54.194C127.765 54.398 126.789 54.5 125.756 54.5H122.524C122.014 54.4745 121.714 54.4554 121.625 54.4426C121.382 54.4044 121.147 54.2641 120.917 54.0218L120.171 53.2758C120.63 53.4416 121.089 53.5245 121.548 53.5245H125.431C127.841 53.5245 129.658 53.059 130.883 52.1281C132.579 50.853 133.86 48.8063 134.727 45.9881C135.327 44.0626 135.626 42.0733 135.626 40.0202C135.626 36.9215 134.963 34.2691 133.637 32.063C133.357 31.6039 132.942 31.0173 132.394 30.3032ZM128.109 33.9184C127.459 33.7271 126.936 33.6315 126.541 33.6315C126.043 33.6315 125.712 33.759 125.546 34.014C125.469 34.1416 125.431 34.3902 125.431 34.76V48.1878C125.316 48.1878 125.234 48.1878 125.183 48.1878C124.902 48.1878 124.73 48.1495 124.666 48.073C124.564 47.971 124.513 47.7606 124.513 47.4418V34.2244C124.513 33.2553 125.049 32.7707 126.12 32.7707C127.051 32.7707 127.714 33.1533 128.109 33.9184ZM124.513 52.2812H119.559C119.062 52.2812 118.813 52.1026 118.813 51.7456C118.813 51.5926 118.985 51.3311 119.329 50.9613C119.457 50.8211 119.533 50.5724 119.559 50.2154C119.559 50.1006 119.559 49.667 119.559 48.9147V31.757C119.559 30.8388 119.54 30.2777 119.502 30.0737C119.463 29.8952 119.304 29.6593 119.023 29.366C118.896 29.2257 118.832 29.0727 118.832 28.9069C118.832 28.5626 119.074 28.3904 119.559 28.3904H124.513C125.967 28.3904 127.012 28.4542 127.65 28.5817C129.703 29.0153 131.367 30.3989 132.642 32.7325C133.765 34.811 134.326 37.202 134.326 39.9054C134.326 42.9276 133.771 45.58 132.662 47.8626C131.437 50.3875 129.69 51.8157 127.421 52.1473C126.783 52.2365 125.814 52.2812 124.513 52.2812ZM123.232 33.8993V47.327C123.232 47.8754 123.295 48.2643 123.423 48.4938C123.64 48.8764 124.201 49.0677 125.106 49.0677C126.968 49.0677 128.294 48.3855 129.085 47.021C130.028 45.3888 130.5 43.1444 130.5 40.288C130.5 37.3423 129.901 35.0597 128.702 33.4402C127.848 32.2798 126.649 31.6996 125.106 31.6996C124.252 31.6996 123.697 31.9036 123.442 32.3117C123.327 32.4902 123.257 33.0194 123.232 33.8993ZM148.308 53.2949C148.627 53.448 149.15 53.5245 149.877 53.5245H152.325C152.988 53.5245 153.32 53.3332 153.32 52.9506C153.32 52.7849 153.16 52.5235 152.841 52.1664C152.714 52.0006 152.644 51.8412 152.631 51.6882C152.618 51.6244 152.612 51.4268 152.612 51.0952V31.8335C152.612 31.6294 152.631 31.4764 152.669 31.3744C152.72 31.2724 152.867 31.062 153.109 30.7432C153.237 30.5646 153.301 30.4053 153.301 30.265C153.301 30.2012 153.294 30.1247 153.281 30.0354C153.932 30.5838 154.257 30.9217 154.257 31.0492C154.257 31.1767 154.149 31.3744 153.932 31.6422C153.728 31.8972 153.613 32.0949 153.587 32.2352C153.562 32.3372 153.549 32.6815 153.549 33.2681V50.158C153.549 50.9741 153.568 51.5288 153.607 51.8221C153.67 52.0899 153.836 52.5043 154.104 53.0654C154.257 53.3715 154.333 53.6137 154.333 53.7923C154.333 54.2641 153.983 54.5 153.281 54.5H150.431C149.909 54.5 149.507 54.4171 149.226 54.2513C148.946 54.0601 148.64 53.7413 148.308 53.2949ZM147.677 34.5688V31.757C147.677 30.8516 147.658 30.2905 147.62 30.0737C147.581 29.8952 147.422 29.6593 147.141 29.366C147.001 29.2257 146.931 29.0663 146.931 28.8878C146.931 28.5562 147.18 28.3904 147.677 28.3904H151.369C151.853 28.3904 152.095 28.5562 152.095 28.8878C152.095 29.0663 151.923 29.3405 151.579 29.7103C151.464 29.8378 151.4 30.0928 151.388 30.4754C151.375 30.5902 151.369 31.0173 151.369 31.757V48.9147C151.369 49.8328 151.388 50.3939 151.426 50.5979C151.464 50.7764 151.624 51.0124 151.904 51.3056C152.032 51.4459 152.095 51.6053 152.095 51.7838C152.095 52.1154 151.853 52.2812 151.369 52.2812H147.677C147.18 52.2812 146.931 52.109 146.931 51.7647C146.931 51.5989 147.103 51.3311 147.447 50.9613C147.575 50.8211 147.651 50.5724 147.677 50.2154C147.677 50.1006 147.677 49.667 147.677 48.9147V40.9383C147.69 40.2752 147.588 39.8353 147.371 39.6185C147.205 39.4655 146.982 39.389 146.701 39.389L146.128 39.3698H143.737C143.061 39.3698 142.646 39.4655 142.493 39.6568C142.289 39.9118 142.194 40.3262 142.206 40.9001V48.9147C142.219 49.8328 142.238 50.3939 142.264 50.5979C142.302 50.7764 142.461 51.0124 142.742 51.3056C142.869 51.4459 142.933 51.6053 142.933 51.7838C142.933 52.1154 142.691 52.2812 142.206 52.2812H138.534C138.036 52.2812 137.788 52.1026 137.788 51.7456C137.788 51.5926 137.96 51.3311 138.304 50.9613C138.432 50.8211 138.508 50.5724 138.534 50.2154C138.534 50.1006 138.534 49.667 138.534 48.9147V31.757C138.534 30.8388 138.515 30.2777 138.476 30.0737C138.438 29.8952 138.279 29.6593 137.998 29.366C137.871 29.2257 137.807 29.0727 137.807 28.9069C137.807 28.5626 138.049 28.3904 138.534 28.3904H142.206C142.691 28.3904 142.933 28.5626 142.933 28.9069C142.933 29.0727 142.761 29.3405 142.417 29.7103C142.302 29.8378 142.238 30.0928 142.225 30.4754C142.213 30.5902 142.206 31.0173 142.206 31.757V34.5688C142.219 35.1298 142.276 35.4678 142.379 35.5825C142.544 35.7866 142.876 35.9013 143.373 35.9268L143.679 35.946H146.472C147.339 35.9842 147.741 35.5251 147.677 34.5688ZM147.084 41.493H145.286C144.878 41.493 144.623 41.5632 144.521 41.7034C144.432 41.8182 144.387 42.0541 144.387 42.4112V50.1962C144.387 50.9741 144.406 51.5161 144.444 51.8221C144.495 52.0899 144.655 52.5043 144.923 53.0654C145.063 53.3715 145.133 53.6074 145.133 53.7731C145.133 54.2577 144.776 54.5 144.062 54.5H141.403C140.906 54.5 140.529 54.4171 140.274 54.2513C140.007 54.0601 139.713 53.7413 139.395 53.2949C139.701 53.448 140.198 53.5245 140.887 53.5245H143.22C143.858 53.5245 144.177 53.3332 144.177 52.9506C144.177 52.7849 144.024 52.5235 143.717 52.1664C143.59 52.0134 143.52 51.854 143.507 51.6882C143.494 51.6244 143.488 51.4204 143.488 51.0761V41.6843C143.488 41.2253 143.558 40.9256 143.698 40.7853C143.826 40.6578 144.055 40.594 144.387 40.594H146.548C146.918 40.594 147.103 40.7662 147.103 41.1105C147.103 41.1997 147.097 41.3273 147.084 41.493ZM144.387 35.2C144.208 35.2255 144.087 35.2382 144.024 35.2382C143.666 35.2382 143.488 34.9768 143.488 34.454V31.8526C143.488 31.6358 143.526 31.4509 143.603 31.2979C143.641 31.2341 143.775 31.0492 144.004 30.7432C144.145 30.5774 144.215 30.418 144.215 30.265C144.215 30.214 144.208 30.1375 144.196 30.0354C144.769 30.5838 145.056 30.9217 145.056 31.0492C145.056 31.1895 144.954 31.3935 144.75 31.6613C144.559 31.9036 144.451 32.1013 144.425 32.2543C144.4 32.3563 144.387 32.6815 144.387 33.2298V35.2ZM168.335 29.9398C168.437 30.0801 168.667 30.3542 169.024 30.7623C169.087 30.8261 169.119 30.909 169.119 31.011C169.119 31.0875 169.056 31.2724 168.928 31.5657C168.826 31.7952 168.775 31.9865 168.775 32.1395C168.775 32.1905 168.89 32.7516 169.119 33.8228L172.562 49.9284C172.626 50.2345 172.734 50.6298 172.887 51.1144C172.951 51.3694 173.225 51.8795 173.71 52.6446C173.94 53.0144 174.054 53.346 174.054 53.6392C174.054 53.8688 173.946 54.0664 173.729 54.2322C173.474 54.4107 173.143 54.5 172.734 54.5H169.961C169.413 54.5 169.005 54.4362 168.737 54.3087C168.482 54.1685 168.201 53.8305 167.895 53.2949C168.227 53.4352 168.692 53.5117 169.291 53.5245H171.855C172.275 53.5245 172.594 53.4225 172.811 53.2184C172.9 53.1292 172.945 53.0335 172.945 52.9315C172.945 52.7657 172.734 52.4023 172.314 51.8412C172.148 51.6117 172.014 51.2546 171.912 50.7701L167.895 32.5029C167.831 32.2096 167.799 31.9801 167.799 31.8143C167.799 31.4955 167.889 31.1895 168.067 30.8962C168.284 30.5519 168.392 30.3351 168.392 30.2459C168.392 30.1948 168.373 30.0928 168.335 29.9398ZM166.728 31.0875L170.573 49.412C170.637 49.7053 170.72 50.0113 170.822 50.3301C170.873 50.5086 171.07 50.8083 171.415 51.2291C171.568 51.4077 171.644 51.5798 171.644 51.7456C171.644 52.1026 171.255 52.2812 170.477 52.2812H167.455C166.754 52.2812 166.403 52.1026 166.403 51.7456C166.403 51.5926 166.55 51.3375 166.843 50.9805C166.92 50.8912 166.958 50.7701 166.958 50.617C166.958 50.515 166.9 50.1707 166.786 49.5841L165.408 42.8703C165.204 41.8756 165.026 41.2763 164.873 41.0722C164.669 40.8044 164.133 40.6705 163.266 40.6705C162.565 40.6705 162.08 40.7789 161.812 40.9957C161.57 41.1997 161.385 41.5887 161.258 42.1625L159.708 49.6224C159.657 49.8137 159.625 49.9348 159.613 49.9858C159.549 50.2281 159.517 50.3748 159.517 50.4258C159.517 50.6298 159.638 50.904 159.881 51.2483C160.034 51.4523 160.11 51.6308 160.11 51.7838C160.11 52.1154 159.689 52.2812 158.848 52.2812H156.017C155.239 52.2812 154.85 52.109 154.85 51.7647C154.85 51.6117 154.946 51.4204 155.137 51.1909C155.443 50.8083 155.615 50.5788 155.653 50.5023C155.692 50.4258 155.749 50.2472 155.825 49.9667C155.864 49.8009 155.934 49.4821 156.036 49.0103L159.823 31.0875C159.9 30.7304 159.938 30.5009 159.938 30.3989C159.938 30.2586 159.874 30.0354 159.747 29.7294C159.568 29.3213 159.479 29.0791 159.479 29.0025C159.479 28.5945 159.842 28.3904 160.569 28.3904H165.906C166.645 28.3904 167.015 28.5626 167.015 28.9069C167.015 28.9707 166.913 29.2129 166.709 29.6338C166.607 29.8378 166.556 30.0099 166.556 30.1502C166.556 30.1885 166.614 30.5009 166.728 31.0875ZM162.864 34.1671L162.348 36.4815C162.272 36.8131 162.233 37.0107 162.233 37.0745C162.233 37.4443 162.571 37.6292 163.247 37.6292C163.948 37.6292 164.299 37.4571 164.299 37.1128C164.299 37.0362 164.261 36.8003 164.184 36.405L163.744 34.3583C163.642 33.8738 163.489 33.6315 163.285 33.6315C163.081 33.6315 162.941 33.81 162.864 34.1671ZM164.682 42.8703H164.261C163.916 42.8703 163.681 42.9468 163.553 43.0998C163.464 43.2273 163.381 43.4823 163.304 43.8649L161.851 50.6936C161.736 51.1399 161.679 51.4459 161.679 51.6117C161.679 51.905 161.851 52.3641 162.195 52.9889C162.323 53.2184 162.386 53.4352 162.386 53.6392C162.386 54.2131 161.914 54.5 160.971 54.5H158.522C157.745 54.5 157.19 54.3278 156.858 53.9835L156.227 53.2949C156.61 53.448 157.094 53.5245 157.681 53.5245H160.206C160.958 53.5245 161.334 53.3396 161.334 52.9698C161.334 52.8167 161.149 52.5235 160.78 52.0899C160.652 51.9369 160.588 51.7711 160.588 51.5926C160.588 51.4778 160.627 51.2291 160.703 50.8466L162.329 43.2911C162.418 42.8575 162.552 42.5259 162.731 42.2964C162.922 42.0669 163.285 41.9521 163.821 41.9521C164.395 41.9521 164.682 42.0988 164.682 42.3921V42.8703ZM189.529 29.9015C189.618 29.9908 189.675 30.0482 189.701 30.0737C190.096 30.4945 190.294 30.7878 190.294 30.9536C190.294 31.0939 190.173 31.2851 189.93 31.5274C189.637 31.8207 189.439 32.0821 189.337 32.3117C189.274 32.4519 189.197 32.7197 189.108 33.115L185.015 50.5788C184.836 51.3694 184.747 51.8604 184.747 52.0516C184.747 52.2939 184.817 52.5872 184.957 52.9315C185.11 53.3268 185.187 53.6265 185.187 53.8305C185.187 54.2768 184.772 54.5 183.943 54.5H180.596C179.436 54.5638 178.651 54.1876 178.243 53.3715C178.588 53.4607 179.015 53.5117 179.525 53.5245H179.869H183.217C183.931 53.5245 184.288 53.3523 184.288 53.008C184.288 52.9443 184.192 52.7084 184.001 52.3003C183.899 52.0835 183.848 51.8667 183.848 51.6499C183.848 51.4969 183.918 51.1781 184.058 50.6936L188.381 32.1586C188.47 31.7761 188.56 31.5083 188.649 31.3553C188.713 31.2533 188.949 30.9982 189.357 30.5902C189.459 30.4626 189.516 30.2331 189.529 29.9015ZM187.463 30.724L183.064 49.2398C182.898 49.9794 182.815 50.3556 182.815 50.3684C182.815 50.5597 182.936 50.8274 183.178 51.1717C183.357 51.414 183.446 51.6181 183.446 51.7838C183.446 52.1154 183.057 52.2812 182.279 52.2812H178.262C177.446 52.2812 177.038 52.0963 177.038 51.7265C177.038 51.5607 177.236 51.2738 177.631 50.8657C177.759 50.7382 177.822 50.5852 177.822 50.4066C177.822 50.2409 177.701 49.667 177.459 48.6851L173.385 31.7952C173.283 31.3361 173.225 31.0747 173.213 31.011C173.098 30.4626 172.996 30.1375 172.907 30.0354L172.428 29.4999C172.263 29.3086 172.18 29.1173 172.18 28.926C172.18 28.569 172.505 28.3904 173.155 28.3904H176.464C177.191 28.3904 177.555 28.5626 177.555 28.9069C177.555 29.0599 177.453 29.2767 177.249 29.5572C177.006 29.8888 176.885 30.1757 176.885 30.418C176.885 30.571 176.943 30.8898 177.057 31.3744L179.946 43.6736C180.048 44.0944 180.169 44.3048 180.309 44.3048C180.475 44.3048 180.615 44.0689 180.73 43.5971L183.58 31.0492C183.682 30.5774 183.733 30.3415 183.733 30.3415C183.733 30.1502 183.612 29.9015 183.37 29.5955C183.153 29.315 183.044 29.0727 183.044 28.8686C183.044 28.5498 183.376 28.3904 184.039 28.3904H187.463C188.113 28.3904 188.438 28.6009 188.438 29.0217C188.438 29.1874 188.228 29.468 187.807 29.8633C187.68 29.9653 187.565 30.2522 187.463 30.724ZM178.262 29.6529C178.938 30.2012 179.276 30.6157 179.276 30.8962C179.276 30.9727 179.27 31.0556 179.257 31.1449C179.155 31.6039 179.104 31.8526 179.104 31.8908C179.104 31.9674 179.155 32.2543 179.257 32.7516L180.864 39.389L180.539 40.6514C180.513 40.7407 180.481 40.7853 180.443 40.7853C180.379 40.7853 180.309 40.6259 180.233 40.3071L178.262 32.0821C178.135 31.5083 178.071 31.1512 178.071 31.011C178.071 30.8707 178.109 30.7113 178.186 30.5328C178.301 30.2522 178.358 30.0673 178.358 29.9781C178.358 29.9526 178.326 29.8442 178.262 29.6529ZM201.598 53.2949C201.917 53.448 202.44 53.5245 203.167 53.5245H205.615C206.278 53.5245 206.61 53.3332 206.61 52.9506C206.61 52.7849 206.451 52.5235 206.132 52.1664C206.004 52.0006 205.934 51.8412 205.921 51.6882C205.909 51.6244 205.902 51.4268 205.902 51.0952V31.8335C205.902 31.6294 205.921 31.4764 205.96 31.3744C206.011 31.2724 206.157 31.062 206.4 30.7432C206.527 30.5646 206.591 30.4053 206.591 30.265C206.591 30.2012 206.584 30.1247 206.572 30.0354C207.222 30.5838 207.547 30.9217 207.547 31.0492C207.547 31.1767 207.439 31.3744 207.222 31.6422C207.018 31.8972 206.903 32.0949 206.878 32.2352C206.852 32.3372 206.839 32.6815 206.839 33.2681V50.158C206.839 50.9741 206.859 51.5288 206.897 51.8221C206.961 52.0899 207.126 52.5043 207.394 53.0654C207.547 53.3715 207.624 53.6137 207.624 53.7923C207.624 54.2641 207.273 54.5 206.572 54.5H203.722C203.199 54.5 202.797 54.4171 202.517 54.2513C202.236 54.0601 201.93 53.7413 201.598 53.2949ZM200.967 34.5688V31.757C200.967 30.8516 200.948 30.2905 200.91 30.0737C200.872 29.8952 200.712 29.6593 200.432 29.366C200.291 29.2257 200.221 29.0663 200.221 28.8878C200.221 28.5562 200.47 28.3904 200.967 28.3904H204.659C205.143 28.3904 205.386 28.5562 205.386 28.8878C205.386 29.0663 205.214 29.3405 204.869 29.7103C204.755 29.8378 204.691 30.0928 204.678 30.4754C204.665 30.5902 204.659 31.0173 204.659 31.757V48.9147C204.659 49.8328 204.678 50.3939 204.716 50.5979C204.755 50.7764 204.914 51.0124 205.194 51.3056C205.322 51.4459 205.386 51.6053 205.386 51.7838C205.386 52.1154 205.143 52.2812 204.659 52.2812H200.967C200.47 52.2812 200.221 52.109 200.221 51.7647C200.221 51.5989 200.393 51.3311 200.738 50.9613C200.865 50.8211 200.942 50.5724 200.967 50.2154C200.967 50.1006 200.967 49.667 200.967 48.9147V40.9383C200.98 40.2752 200.878 39.8353 200.661 39.6185C200.495 39.4655 200.272 39.389 199.992 39.389L199.418 39.3698H197.027C196.351 39.3698 195.937 39.4655 195.784 39.6568C195.58 39.9118 195.484 40.3262 195.497 40.9001V48.9147C195.509 49.8328 195.529 50.3939 195.554 50.5979C195.592 50.7764 195.752 51.0124 196.032 51.3056C196.16 51.4459 196.223 51.6053 196.223 51.7838C196.223 52.1154 195.981 52.2812 195.497 52.2812H191.824C191.327 52.2812 191.078 52.1026 191.078 51.7456C191.078 51.5926 191.25 51.3311 191.595 50.9613C191.722 50.8211 191.799 50.5724 191.824 50.2154C191.824 50.1006 191.824 49.667 191.824 48.9147V31.757C191.824 30.8388 191.805 30.2777 191.767 30.0737C191.728 29.8952 191.569 29.6593 191.288 29.366C191.161 29.2257 191.097 29.0727 191.097 28.9069C191.097 28.5626 191.34 28.3904 191.824 28.3904H195.497C195.981 28.3904 196.223 28.5626 196.223 28.9069C196.223 29.0727 196.051 29.3405 195.707 29.7103C195.592 29.8378 195.529 30.0928 195.516 30.4754C195.503 30.5902 195.497 31.0173 195.497 31.757V34.5688C195.509 35.1298 195.567 35.4678 195.669 35.5825C195.835 35.7866 196.166 35.9013 196.663 35.9268L196.969 35.946H199.762C200.629 35.9842 201.031 35.5251 200.967 34.5688ZM200.374 41.493H198.576C198.168 41.493 197.913 41.5632 197.811 41.7034C197.722 41.8182 197.677 42.0541 197.677 42.4112V50.1962C197.677 50.9741 197.696 51.5161 197.735 51.8221C197.786 52.0899 197.945 52.5043 198.213 53.0654C198.353 53.3715 198.423 53.6074 198.423 53.7731C198.423 54.2577 198.066 54.5 197.352 54.5H194.693C194.196 54.5 193.82 54.4171 193.565 54.2513C193.297 54.0601 193.004 53.7413 192.685 53.2949C192.991 53.448 193.488 53.5245 194.177 53.5245H196.51C197.148 53.5245 197.467 53.3332 197.467 52.9506C197.467 52.7849 197.314 52.5235 197.008 52.1664C196.88 52.0134 196.81 51.854 196.797 51.6882C196.785 51.6244 196.778 51.4204 196.778 51.0761V41.6843C196.778 41.2253 196.848 40.9256 196.989 40.7853C197.116 40.6578 197.346 40.594 197.677 40.594H199.839C200.208 40.594 200.393 40.7662 200.393 41.1105C200.393 41.1997 200.387 41.3273 200.374 41.493ZM197.677 35.2C197.499 35.2255 197.378 35.2382 197.314 35.2382C196.957 35.2382 196.778 34.9768 196.778 34.454V31.8526C196.778 31.6358 196.816 31.4509 196.893 31.2979C196.931 31.2341 197.065 31.0492 197.295 30.7432C197.435 30.5774 197.505 30.418 197.505 30.265C197.505 30.214 197.499 30.1375 197.486 30.0354C198.06 30.5838 198.347 30.9217 198.347 31.0492C198.347 31.1895 198.245 31.3935 198.041 31.6613C197.849 31.9036 197.741 32.1013 197.715 32.2543C197.69 32.3563 197.677 32.6815 197.677 33.2298V35.2ZM210.665 53.2949C210.984 53.448 211.5 53.5245 212.214 53.5245H214.605C215.256 53.5245 215.581 53.3332 215.581 52.9506C215.581 52.7849 215.428 52.5235 215.122 52.1664C214.994 52.0134 214.924 51.854 214.911 51.6882C214.899 51.5989 214.892 51.3503 214.892 50.9422V31.757C214.905 31.4509 215.064 31.1002 215.37 30.7049C215.498 30.5391 215.562 30.3861 215.562 30.2459C215.562 30.1821 215.555 30.112 215.543 30.0354C216.18 30.571 216.499 30.909 216.499 31.0492C216.499 31.1895 216.391 31.3871 216.174 31.6422C215.97 31.8972 215.855 32.0949 215.83 32.2352C215.817 32.3627 215.81 32.6496 215.81 33.0959V50.1197C215.81 50.9613 215.83 51.5288 215.868 51.8221C215.919 52.0771 216.085 52.4916 216.365 53.0654C216.518 53.3715 216.595 53.6137 216.595 53.7923C216.595 54.2641 216.244 54.5 215.543 54.5H212.75C212.24 54.5 211.851 54.4171 211.583 54.2513C211.303 54.0473 210.997 53.7285 210.665 53.2949ZM213.496 31.757V48.9147C213.496 49.8328 213.515 50.3939 213.553 50.5979C213.592 50.7764 213.757 51.0124 214.051 51.3056C214.191 51.4332 214.261 51.5798 214.261 51.7456C214.261 52.1026 214.006 52.2812 213.496 52.2812H209.919C209.422 52.2812 209.173 52.1026 209.173 51.7456C209.173 51.5926 209.345 51.3311 209.69 50.9613C209.817 50.8211 209.894 50.5724 209.919 50.2154C209.919 50.1006 209.919 49.667 209.919 48.9147V31.757C209.919 30.8388 209.9 30.2777 209.862 30.0737C209.823 29.8952 209.664 29.6593 209.383 29.366C209.256 29.2257 209.192 29.0727 209.192 28.9069C209.192 28.5626 209.434 28.3904 209.919 28.3904H213.496C214.019 28.3904 214.28 28.569 214.28 28.926C214.28 29.0791 214.095 29.3405 213.725 29.7103C213.598 29.825 213.528 30.0801 213.515 30.4754C213.502 30.5774 213.496 31.0046 213.496 31.757Z" fill="#2BB8D6"/>
</svg>
