<svg width="20" height="20" viewBox="0 0 20 20" fill="none" xmlns="http://www.w3.org/2000/svg">
<path d="M12.9614 3.19353C13.5779 2.44568 14.0124 1.42496 14.0124 0.394138C14.0124 0.252653 14.0023 0.111167 13.9821 0C12.9715 0.0404245 11.7588 0.667004 11.0412 1.51592C10.4652 2.16271 9.93968 3.19353 9.93968 4.22436C9.93968 4.38605 9.97 4.53765 9.9801 4.58818C10.0407 4.59828 10.1418 4.61849 10.253 4.61849C11.1524 4.61849 12.2843 4.01213 12.9614 3.19353ZM13.6688 4.83072C12.163 4.83072 10.9301 5.75038 10.1418 5.75038C9.30299 5.75038 8.21153 4.89136 6.89774 4.89136C4.40153 4.89136 1.875 6.95301 1.875 10.8338C1.875 13.2592 2.80476 15.8161 3.96697 17.4634C4.95736 18.858 5.82649 20 7.07965 20C8.31259 20 8.85832 19.1814 10.3945 19.1814C11.9508 19.1814 12.3045 19.9798 13.6688 19.9798C15.0231 19.9798 15.9225 18.7367 16.7815 17.5139C17.7315 16.1091 18.1357 14.7448 18.1458 14.6741C18.065 14.6539 15.4778 13.5927 15.4778 10.6316C15.4778 8.06468 17.5092 6.91258 17.6304 6.82163C16.2863 4.89136 14.2348 4.83072 13.6688 4.83072Z" fill="#030918"/>
</svg>
