<svg width="20" height="20" viewBox="0 0 20 20" fill="none" xmlns="http://www.w3.org/2000/svg">
<path d="M16.1667 2.5H13C12.5333 2.5 12.2999 2.5 12.1217 2.59083C11.9649 2.67072 11.8374 2.79821 11.7575 2.95501C11.6667 3.13327 11.6667 3.36662 11.6667 3.83333V7C11.6667 7.46671 11.6667 7.70007 11.7575 7.87833C11.8374 8.03513 11.9649 8.16261 12.1217 8.24251C12.2999 8.33333 12.5333 8.33333 13 8.33333H16.1667C16.6334 8.33333 16.8667 8.33333 17.045 8.24251C17.2018 8.16261 17.3293 8.03513 17.4092 7.87833C17.5 7.70007 17.5 7.46671 17.5 7V3.83333C17.5 3.36662 17.5 3.13327 17.4092 2.95501C17.3293 2.79821 17.2018 2.67072 17.045 2.59083C16.8667 2.5 16.6334 2.5 16.1667 2.5Z" stroke="#030918" stroke-width="1.66667" stroke-linecap="round" stroke-linejoin="round"/>
<path d="M12.5945 12.631C12.2508 12.3889 11.7806 12.5796 11.7806 13V13V16.1667C11.7806 16.6334 11.7806 16.8667 11.8714 17.045C11.9513 17.2018 12.0788 17.3293 12.2356 17.4092C12.4139 17.5 12.6472 17.5 13.1139 17.5H16.2806C16.7473 17.5 16.9807 17.5 17.1589 17.4092C17.3157 17.3293 17.4432 17.2018 17.5231 17.045C17.5514 16.9895 17.5709 16.9286 17.5843 16.8569C17.6147 16.6945 17.6299 16.6132 17.6073 16.4708C17.5906 16.3655 17.5267 16.2083 17.4652 16.1212C17.3821 16.0033 17.2709 15.925 17.0484 15.7683L12.5945 12.631Z" stroke="#030918" stroke-width="1.66667" stroke-linecap="round" stroke-linejoin="round"/>
<rect x="2.5" y="2.5" width="6.66667" height="15" rx="0.833333" stroke="#030918" stroke-width="1.66667"/>
</svg>
