<svg width="20" height="20" viewBox="0 0 20 20" fill="none" xmlns="http://www.w3.org/2000/svg">
<g clip-path="url(#clip0_138_871)">
<path d="M20 10.2228C20 9.40058 19.932 8.80059 19.7846 8.17838H10.2041V11.8894H15.8276C15.7143 12.8117 15.1021 14.2006 13.7415 15.1338L13.7224 15.2581L16.7516 17.5578L16.9615 17.5783C18.8889 15.8339 20 13.2672 20 10.2228Z" fill="#4285F4"/>
<path d="M10.204 19.9999C12.9591 19.9999 15.272 19.111 16.9614 17.5777L13.7414 15.1332C12.8798 15.7221 11.7233 16.1332 10.204 16.1332C7.50563 16.1332 5.21538 14.3888 4.39897 11.9777L4.27931 11.9877L1.12951 14.3765L1.08832 14.4888C2.76632 17.7554 6.21305 19.9999 10.204 19.9999Z" fill="#34A853"/>
<path d="M4.39907 11.9775C4.18365 11.3553 4.05898 10.6885 4.05898 9.99969C4.05898 9.31076 4.18365 8.64413 4.38774 8.02192L4.38203 7.8894L1.19276 5.46214L1.08841 5.51078C0.396832 6.86635 9.53674e-07 8.38859 9.53674e-07 9.99969C9.53674e-07 11.6108 0.396832 13.133 1.08841 14.4885L4.39907 11.9775Z" fill="#FBBC05"/>
<path d="M10.204 3.86674C12.1201 3.86674 13.4126 4.67785 14.1496 5.35567L17.0294 2.60011C15.2608 0.98901 12.9591 0.00012207 10.204 0.00012207C6.21305 0.00012207 2.76631 2.24454 1.08832 5.51116L4.38764 8.02229C5.21538 5.6112 7.50562 3.86674 10.204 3.86674Z" fill="#EB4335"/>
</g>
<defs>
<clipPath id="clip0_138_871">
<rect width="20" height="19.9997" fill="white"/>
</clipPath>
</defs>
</svg>
