<svg width="18" height="18" viewBox="0 0 18 18" fill="none" xmlns="http://www.w3.org/2000/svg">
<path d="M5.77168 10.6667C6.14172 12.1044 7.4468 13.1667 9 13.1667C10.5532 13.1667 11.8583 12.1044 12.2283 10.6667M8.18141 1.30335L2.52949 5.69929C2.15168 5.99314 1.96278 6.14006 1.82669 6.32406C1.70614 6.48705 1.61633 6.67067 1.56169 6.86589C1.5 7.08628 1.5 7.32559 1.5 7.80422V13.8333C1.5 14.7668 1.5 15.2335 1.68166 15.59C1.84144 15.9036 2.09641 16.1586 2.41002 16.3183C2.76654 16.5 3.23325 16.5 4.16667 16.5H13.8333C14.7668 16.5 15.2335 16.5 15.59 16.3183C15.9036 16.1586 16.1586 15.9036 16.3183 15.59C16.5 15.2335 16.5 14.7668 16.5 13.8333V7.80422C16.5 7.3256 16.5 7.08628 16.4383 6.86589C16.3837 6.67067 16.2939 6.48705 16.1733 6.32406C16.0372 6.14006 15.8483 5.99314 15.4705 5.69929L9.81859 1.30335C9.52582 1.07564 9.37943 0.961782 9.21779 0.918016C9.07516 0.879399 8.92484 0.879399 8.78221 0.918016C8.62057 0.961782 8.47418 1.07564 8.18141 1.30335Z" stroke="#030918" stroke-width="1.66667" stroke-linecap="round" stroke-linejoin="round"/>
</svg>
